inDegrees=no
DataType=double
version=3
OpenSimVersion=4.4-2022-10-11-798caa840
endheader
time	elv_angle	shoulder_elv	shoulder_rot	elbow_flexion	pro_sup	deviation	flexion
2.4020851434	0.3316125572	1.0012650490	0.9424777627	1.7013000250	0.0000000000	0.0000000000	0.0000000000
2.4062554301	0.3316125572	1.0012650490	0.9424777627	1.7013000250	0.0000000000	0.0000000000	0.0000000000
2.4104257168	0.3316125572	1.0012650490	0.9424777627	1.7013000250	0.0000000000	0.0000000000	0.0000000000
2.4145960035	0.3316125572	1.0012650490	0.9424777627	1.7013000250	0.0000000000	0.0000000000	0.0000000000
2.4187662902	0.3316125572	1.0012650490	0.9424777627	1.7013000250	0.0000000000	0.0000000000	0.0000000000
2.4229365769	0.3316125572	1.0012650490	0.9424777627	1.7013000250	0.0000000000	0.0000000000	0.0000000000
2.4271068636	0.3316125572	1.0012650490	0.9424777627	1.7013000250	0.0000000000	0.0000000000	0.0000000000
2.4312771503	0.3316125572	1.0012650490	0.9424777627	1.7013000250	0.0000000000	0.0000000000	0.0000000000
2.4354474370	0.3316125572	1.0012650490	0.9424777627	1.7013000250	0.0000000000	0.0000000000	0.0000000000
2.4396177237	0.3316125572	1.0012650490	0.9424777627	1.7013000250	0.0000000000	0.0000000000	0.0000000000
2.4437880104	0.3316125572	1.0012650490	0.9424777627	1.7013000250	0.0000000000	0.0000000000	0.0000000000
2.4479582971	0.3316125572	1.0012650490	0.9424777627	1.7013000250	0.0000000000	0.0000000000	0.0000000000
2.4521285838	0.3316125572	1.0012650490	0.9424777627	1.7013000250	0.0000000000	0.0000000000	0.0000000000
2.4562988705	0.3316125572	1.0012650490	0.9424777627	1.7013000250	0.0000000000	0.0000000000	0.0000000000
2.4604691573	0.3316125572	1.0012650490	0.9424777627	1.7013000250	0.0000000000	0.0000000000	0.0000000000
2.4646394440	0.3316125572	1.0012650490	0.9424777627	1.7013000250	0.0000000000	0.0000000000	0.0000000000
2.4688097307	0.3316125572	1.0012650490	0.9424777627	1.7013000250	0.0000000000	0.0000000000	0.0000000000
2.4729800174	0.3316125572	1.0012650490	0.9424777627	1.7013000250	0.0000000000	0.0000000000	0.0000000000
2.4771503041	0.3316125572	1.0012650490	0.9424777627	1.7013000250	0.0000000000	0.0000000000	0.0000000000
2.4813205908	0.3316125572	1.0012650490	0.9424777627	1.7013000250	0.0000000000	0.0000000000	0.0000000000
2.4854908775	0.3316125572	1.0012650490	0.9424777627	1.7013000250	0.0000000000	0.0000000000	0.0000000000
2.4896611642	0.3316125572	1.0012650490	0.9424777627	1.7013000250	0.0000000000	0.0000000000	0.0000000000
2.4938314509	0.3316125572	1.0012650490	0.9424777627	1.7013000250	0.0000000000	0.0000000000	0.0000000000
2.4980017376	0.3316125572	1.0012650490	0.9424777627	1.7013000250	0.0000000000	0.0000000000	0.0000000000
2.5021720243	0.3316125572	1.0012650490	0.9424777627	1.7013000250	0.0000000000	0.0000000000	0.0000000000
2.5063423110	0.3316125572	1.0012650490	0.9424777627	1.7013000250	0.0000000000	0.0000000000	0.0000000000
2.5105125977	0.3316125572	1.0012650490	0.9424777627	1.7013000250	0.0000000000	0.0000000000	0.0000000000
2.5146828844	0.3316125572	1.0012650490	0.9424777627	1.7013000250	0.0000000000	0.0000000000	0.0000000000
2.5188531712	0.3316125572	1.0012650490	0.9424777627	1.7013000250	0.0000000000	0.0000000000	0.0000000000
2.5230234579	0.3316125572	1.0012650490	0.9424777627	1.7013000250	0.0000000000	0.0000000000	0.0000000000
2.5271937446	0.3316125572	1.0012650490	0.9424777627	1.7013000250	0.0000000000	0.0000000000	0.0000000000
2.5313640313	0.3316125572	1.0012650490	0.9424777627	1.7013000250	0.0000000000	0.0000000000	0.0000000000
2.5355343180	0.3316125572	1.0012650490	0.9424777627	1.7013000250	0.0000000000	0.0000000000	0.0000000000
2.5397046047	0.3316125572	1.0012650490	0.9424777627	1.7013000250	0.0000000000	0.0000000000	0.0000000000
2.5438748914	0.3316125572	1.0012650490	0.9424777627	1.7013000250	0.0000000000	0.0000000000	0.0000000000
2.5480451781	0.3316125572	1.0012650490	0.9424777627	1.7013000250	0.0000000000	0.0000000000	0.0000000000
2.5522154648	0.3316125572	1.0012650490	0.9424777627	1.7013000250	0.0000000000	0.0000000000	0.0000000000
2.5563857515	0.3316125572	1.0012650490	0.9424777627	1.7013000250	0.0000000000	0.0000000000	0.0000000000
2.5605560382	0.3316125572	1.0012650490	0.9424777627	1.7013000250	0.0000000000	0.0000000000	0.0000000000
2.5647263249	0.3316125572	1.0012650490	0.9424777627	1.7013000250	0.0000000000	0.0000000000	0.0000000000
2.5688966116	0.3316125572	1.0012650490	0.9424777627	1.7013000250	0.0000000000	0.0000000000	0.0000000000
2.5730668983	0.3316125572	1.0012650490	0.9424777627	1.7013000250	0.0000000000	0.0000000000	0.0000000000
2.5772371851	0.3316125572	1.0012650490	0.9424777627	1.7013000250	0.0000000000	0.0000000000	0.0000000000
2.5814074718	0.3316125572	1.0012650490	0.9424777627	1.7013000250	0.0000000000	0.0000000000	0.0000000000
2.5855777585	0.3316125572	1.0012650490	0.9424777627	1.7013000250	0.0000000000	0.0000000000	0.0000000000
2.5897480452	0.3316125572	1.0012650490	0.9424777627	1.7013000250	0.0000000000	0.0000000000	0.0000000000
2.5939183319	0.3316125572	1.0012650490	0.9424777627	1.7013000250	0.0000000000	0.0000000000	0.0000000000
2.5980886186	0.3316125572	1.0012650490	0.9424777627	1.7013000250	0.0000000000	0.0000000000	0.0000000000
2.6022589053	0.3316125572	1.0012650490	0.9424777627	1.7013000250	0.0000000000	0.0000000000	0.0000000000
2.6064291920	0.3316125572	1.0012650490	0.9424777627	1.7013000250	0.0000000000	0.0000000000	0.0000000000
2.6105994787	0.3316125572	1.0012650490	0.9424777627	1.7013000250	0.0000000000	0.0000000000	0.0000000000
2.6147697654	0.3316125572	1.0012650490	0.9424777627	1.7013000250	0.0000000000	0.0000000000	0.0000000000
2.6189400521	0.3316125572	1.0012650490	0.9424777627	1.7013000250	0.0000000000	0.0000000000	0.0000000000
2.6231103388	0.3316125572	1.0012650490	0.9424777627	1.7013000250	0.0000000000	0.0000000000	0.0000000000
2.6272806255	0.3316125572	1.0012650490	0.9424777627	1.7013000250	0.0000000000	0.0000000000	0.0000000000
2.6314509123	0.3316125572	1.0012650490	0.9424777627	1.7013000250	0.0000000000	0.0000000000	0.0000000000
2.6356211990	0.3316125572	1.0012650490	0.9424777627	1.7013000250	0.0000000000	0.0000000000	0.0000000000
2.6397914857	0.3316125572	1.0012650490	0.9424777627	1.7013000250	0.0000000000	0.0000000000	0.0000000000
2.6439617724	0.3316125572	1.0012650490	0.9424777627	1.7013000250	0.0000000000	0.0000000000	0.0000000000
2.6481320591	0.3316125572	1.0012650490	0.9424777627	1.7013000250	0.0000000000	0.0000000000	0.0000000000
2.6523023458	0.3316125572	1.0012650490	0.9424777627	1.7013000250	0.0000000000	0.0000000000	0.0000000000
2.6564726325	0.3316125572	1.0012654066	0.9424777627	1.7012994289	0.0000000000	0.0000000000	0.0000000000
2.6606429192	0.3316125572	1.0012683868	0.9424777627	1.7012958527	0.0000000000	0.0000000000	0.0000000000
2.6648132059	0.3316125572	1.0012763739	0.9424777627	1.7012864351	0.0000000000	0.0000000000	0.0000000000
2.6689834926	0.3316125572	1.0012916327	0.9424777627	1.7012680769	0.0000000000	0.0000000000	0.0000000000
2.6731537793	0.3316125572	1.0013163090	0.9424777627	1.7012383938	0.0000000000	0.0000000000	0.0000000000
2.6773240660	0.3316125572	1.0013526678	0.9424777627	1.7011947632	0.0000000000	0.0000000000	0.0000000000
2.6814943527	0.3316125572	1.0014023781	0.9424777627	1.7011351585	0.0000000000	0.0000000000	0.0000000000
2.6856646394	0.3316125572	1.0014673471	0.9424777627	1.7010570765	0.0000000000	0.0000000000	0.0000000000
2.6898349262	0.3316125572	1.0015492439	0.9424777627	1.7009587288	0.0000000000	0.0000000000	0.0000000000
2.6940052129	0.3316125572	1.0016497374	0.9424777627	1.7008380890	0.0000000000	0.0000000000	0.0000000000
2.6981754996	0.3316125572	1.0017701387	0.9424777627	1.7006932497	0.0000000000	0.0000000000	0.0000000000
2.7023457863	0.3316125572	1.0019118786	0.9424777627	1.7005228996	0.0000000000	0.0000000000	0.0000000000
2.7065160730	0.3316125572	1.0020760298	0.9424777627	1.7003251314	0.0000000000	0.0000000000	0.0000000000
2.7106863597	0.3316125572	1.0022637844	0.9424777627	1.7000989914	0.0000000000	0.0000000000	0.0000000000
2.7148566464	0.3316125572	1.0024762154	0.9424777627	1.6998429298	0.0000000000	0.0000000000	0.0000000000
2.7190269331	0.3316125572	1.0027140379	0.9424777627	1.6995561123	0.0000000000	0.0000000000	0.0000000000
2.7231972198	0.3316125572	1.0029780865	0.9424777627	1.6992372274	0.0000000000	0.0000000000	0.0000000000
2.7273675065	0.3316125572	1.0032690763	0.9424777627	1.6988854408	0.0000000000	0.0000000000	0.0000000000
2.7315377932	0.3316125572	1.0035873652	0.9424777627	1.6985000372	0.0000000000	0.0000000000	0.0000000000
2.7357080799	0.3316125572	1.0039335489	0.9424777627	1.6980805397	0.0000000000	0.0000000000	0.0000000000
2.7398783666	0.3316125572	1.0043079853	0.9424777627	1.6976259947	0.0000000000	0.0000000000	0.0000000000
2.7440486533	0.3316125572	1.0047107935	0.9424777627	1.6971362829	0.0000000000	0.0000000000	0.0000000000
2.7482189401	0.3316125572	1.0051420927	0.9424777627	1.6966109276	0.0000000000	0.0000000000	0.0000000000
2.7523892268	0.3316125572	1.0056020021	0.9424777627	1.6960498095	0.0000000000	0.0000000000	0.0000000000
2.7565595135	0.3316125572	1.0060905218	0.9424777627	1.6954525709	0.0000000000	0.0000000000	0.0000000000
2.7607298002	0.3316125572	1.0066074133	0.9424777627	1.6948194504	0.0000000000	0.0000000000	0.0000000000
2.7649000869	0.3316125572	1.0071525574	0.9424777627	1.6941503286	0.0000000000	0.0000000000	0.0000000000
2.7690703736	0.3316125572	1.0077254772	0.9424777627	1.6934453249	0.0000000000	0.0000000000	0.0000000000
2.7732406603	0.3316125572	1.0083259344	0.9424777627	1.6927046776	0.0000000000	0.0000000000	0.0000000000
2.7774109470	0.3316125572	1.0089534521	0.9424777627	1.6919288635	0.0000000000	0.0000000000	0.0000000000
2.7815812337	0.3316125572	1.0096073151	0.9424777627	1.6911182404	0.0000000000	0.0000000000	0.0000000000
2.7857515204	0.3316125572	1.0102871656	0.9424777627	1.6902731657	0.0000000000	0.0000000000	0.0000000000
2.7899218071	0.3316125572	1.0109920502	0.9424777627	1.6893943548	0.0000000000	0.0000000000	0.0000000000
2.7940920938	0.3316125572	1.0117214918	0.9424777627	1.6884822845	0.0000000000	0.0000000000	0.0000000000
2.7982623805	0.3316125572	1.0124744177	0.9424777627	1.6875380278	0.0000000000	0.0000000000	0.0000000000
2.8024326672	0.3316125572	1.0132501125	0.9424777627	1.6865620613	0.0000000000	0.0000000000	0.0000000000
2.8066029540	0.3316125572	1.0140477419	0.9424777627	1.6855553389	0.0000000000	0.0000000000	0.0000000000
2.8107732407	0.3316125572	1.0148662329	0.9424777627	1.6845189333	0.0000000000	0.0000000000	0.0000000000
2.8149435274	0.3316125572	1.0157046318	0.9424777627	1.6834536791	0.0000000000	0.0000000000	0.0000000000
2.8191138141	0.3316125572	1.0165617466	0.9424777627	1.6823605299	0.0000000000	0.0000000000	0.0000000000
2.8232841008	0.3316125572	1.0174366236	0.9424777627	1.6812409163	0.0000000000	0.0000000000	0.0000000000
2.8274543875	0.3316125572	1.0183281898	0.9424777627	1.6800957918	0.0000000000	0.0000000000	0.0000000000
2.8316246742	0.3316125572	1.0192352533	0.9424777627	1.6789263487	0.0000000000	0.0000000000	0.0000000000
2.8357949609	0.3316125572	1.0201565027	0.9424777627	1.6777341366	0.0000000000	0.0000000000	0.0000000000
2.8399652476	0.3316125572	1.0210908651	0.9424777627	1.6765201092	0.0000000000	0.0000000000	0.0000000000
2.8441355343	0.3316125572	1.0220372677	0.9424777627	1.6752858162	0.0000000000	0.0000000000	0.0000000000
2.8483058210	0.3316125572	1.0229942799	0.9424777627	1.6740328074	0.0000000000	0.0000000000	0.0000000000
2.8524761077	0.3316125572	1.0239607096	0.9424777627	1.6727622747	0.0000000000	0.0000000000	0.0000000000
2.8566463944	0.3316125572	1.0249353647	0.9424777627	1.6714756489	0.0000000000	0.0000000000	0.0000000000
2.8608166811	0.3316125572	1.0259169340	0.9424777627	1.6701745987	0.0000000000	0.0000000000	0.0000000000
2.8649869679	0.3316125572	1.0269042253	0.9424777627	1.6688605547	0.0000000000	0.0000000000	0.0000000000
2.8691572546	0.3316125572	1.0278959274	0.9424777627	1.6675349474	0.0000000000	0.0000000000	0.0000000000
2.8733275413	0.3316125572	1.0288908482	0.9424777627	1.6661996841	0.0000000000	0.0000000000	0.0000000000
2.8774978280	0.3316125572	1.0298877954	0.9424777627	1.6648560762	0.0000000000	0.0000000000	0.0000000000
